{
  "asset": {
    "version": "2.0",
    "generator": "THREE.GLTFExporter"
  },
  "scenes": [
    {
      "nodes": [
        0
      ]
    }
  ],
  "scene": 0,
  "nodes": [
    {
      "children": [
        9
      ],
      "matrix": [
        0.01,
        0,
        0,
        0,
        0,
        0.01,
        0,
        0,
        0,
        0,
        0.01,
        0,
        0,
        0,
        0,
        1
      ]
    },
    {
      "matrix": [
        0.9997433137155427,
        6.143870835420226e-8,
        0.02265627244412162,
        0,
        -0.0000768835304176124,
        0.9999942513380062,
        0.003389893783459369,
        0,
        -0.022656141992598605,
        -0.0033907655384309955,
        0.9997375665338752,
        0,
        -1140.760493006831,
        809.5056279323207,
        5721.367518940915,
        1
      ],
      "name": "Camera 3",
      "camera": 0
    },
    {
      "matrix": [
        0.9999990651673611,
        6.986634126061398e-8,
        -0.0013673567196727787,
        0,
        0.0000374376902378977,
        0.9996237079871741,
        0.027430658548277937,
        0,
        0.001366844110740233,
        -0.02743068409588034,
        0.9996227735036897,
        0,
        -944.917346590618,
        718.1053531675639,
        7024.442104243197,
        1
      ],
      "name": "Camera 2",
      "camera": 1
    },
    {
      "matrix": [
        0.9999992555217417,
        6.61303391267078e-8,
        -0.0012202278303072031,
        0,
        0.0001505621335955265,
        0.9923517485567485,
        0.12344223129629384,
        0,
        0.0012109033843195785,
        -0.1234423231163421,
        0.9923510097624905,
        0,
        -938.7983922343972,
        -56.101547004798704,
        7726.074214401109,
        1
      ],
      "name": "Camera",
      "camera": 2
    },
    {
      "matrix": [
        2.220446049250313e-16,
        -1,
        1.2325951644078397e-32,
        0,
        1,
        2.220446049250313e-16,
        5.551115123125743e-17,
        0,
        -5.551115123125783e-17,
        3.4819581178405733e-62,
        1,
        0,
        -580.9640226278188,
        2778.6357505811247,
        -3232.5000000000005,
        1
      ],
      "name": "Rectangle",
      "mesh": 0
    },
    {
      "matrix": [
        1,
        0,
        0,
        0,
        0,
        1,
        0,
        0,
        0,
        0,
        1,
        0,
        -928.163333758152,
        481.5211504464967,
        -2703.3297543501462,
        1
      ],
      "name": "Sphere",
      "mesh": 1
    },
    {
      "matrix": [
        3.579399896552299e-16,
        -1.6653345369377348e-16,
        1,
        0,
        0.9999999999999999,
        2.1871208377741527e-17,
        -1.3589538473019852e-16,
        0,
        3.36399428535163e-17,
        1,
        2.220446049250313e-16,
        0,
        -1025.6458611431624,
        279.00000000000114,
        1092.7510376893717,
        1
      ],
      "name": "Plane",
      "mesh": 2
    },
    {
      "matrix": [
        0.9999990651673611,
        6.986634126061398e-8,
        -0.0013673567196728134,
        0,
        0.000037437690237898665,
        0.9996237079871741,
        0.027430658548277944,
        0,
        0.0013668441107402677,
        -0.027430684095880346,
        0.9996227735036897,
        0,
        -829.7657907651311,
        -1592.8282245374635,
        91238.95984116099,
        1
      ],
      "camera": 3
    },
    {
      "matrix": [
        1,
        0,
        0,
        0,
        0,
        1,
        0,
        0,
        0,
        0,
        1,
        0,
        0,
        1,
        0,
        1
      ],
      "name": "Default Ambient Light"
    },
    {
      "name": "Scene 1",
      "children": [
        1,
        2,
        3,
        4,
        5,
        6,
        7,
        8
      ]
    }
  ],
  "cameras": [
    {
      "type": "perspective",
      "perspective": {
        "aspectRatio": 1.579849946409432,
        "yfov": 0.7853981633974483,
        "zfar": 100000,
        "znear": 70
      },
      "name": "Camera"
    },
    {
      "type": "perspective",
      "perspective": {
        "aspectRatio": 1.579849946409432,
        "yfov": 0.7853981633974483,
        "zfar": 99997,
        "znear": 60
      },
      "name": "Camera"
    },
    {
      "type": "perspective",
      "perspective": {
        "aspectRatio": 1.579849946409432,
        "yfov": 1.3962634015954636,
        "zfar": 100000,
        "znear": 50
      },
      "name": "Camera"
    },
    {
      "type": "perspective",
      "perspective": {
        "aspectRatio": 1.579849946409432,
        "yfov": 0.7853981633974483,
        "zfar": 100000,
        "znear": 70
      }
    }
  ],
  "bufferViews": [
    {
      "buffer": 0,
      "byteOffset": 0,
      "byteLength": 48,
      "target": 34962,
      "byteStride": 12
    },
    {
      "buffer": 0,
      "byteOffset": 48,
      "byteLength": 48,
      "target": 34962,
      "byteStride": 12
    },
    {
      "buffer": 0,
      "byteOffset": 96,
      "byteLength": 32,
      "target": 34962,
      "byteStride": 8
    },
    {
      "buffer": 0,
      "byteOffset": 128,
      "byteLength": 24,
      "target": 34963
    },
    {
      "buffer": 0,
      "byteOffset": 152,
      "byteLength": 50700,
      "target": 34962,
      "byteStride": 12
    },
    {
      "buffer": 0,
      "byteOffset": 50852,
      "byteLength": 50700,
      "target": 34962,
      "byteStride": 12
    },
    {
      "buffer": 0,
      "byteOffset": 101552,
      "byteLength": 33800,
      "target": 34962,
      "byteStride": 8
    },
    {
      "buffer": 0,
      "byteOffset": 135352,
      "byteLength": 48384,
      "target": 34963
    },
    {
      "buffer": 0,
      "byteOffset": 183736,
      "byteLength": 202800,
      "target": 34962,
      "byteStride": 12
    },
    {
      "buffer": 0,
      "byteOffset": 386536,
      "byteLength": 202800,
      "target": 34962,
      "byteStride": 12
    },
    {
      "buffer": 0,
      "byteOffset": 589336,
      "byteLength": 101400,
      "target": 34963
    }
  ],
  "buffers": [
    {
      "byteLength": 690736,
      "uri": "data:application/octet-stream;base64,"
    }
  ],
  "accessors": [
    {
      "bufferView": 0,
      "componentType": 5126,
      "count": 4,
      "max": [
        7769.869140625,
        19048.185546875,
        0
      ],
      "min": [
        -7769.869140625,
        -19048.185546875,
        0
      ],
      "type": "VEC3"
    },
    {
      "bufferView": 1,
      "componentType": 5126,
      "count": 4,
      "max": [
        0,
        0,
        1
      ],
      "min": [
        0,
        0,
        1
      ],
      "type": "VEC3"
    },
    {
      "bufferView": 2,
      "componentType": 5126,
      "count": 4,
      "max": [
        1,
        1
      ],
      "min": [
        0,
        0
      ],
      "type": "VEC2"
    },
    {
      "bufferView": 3,
      "componentType": 5125,
      "count": 6,
      "max": [
        3
      ],
      "min": [
        0
      ],
      "type": "SCALAR"
    },
    {
      "bufferView": 4,
      "componentType": 5126,
      "count": 4225,
      "max": [
        453,
        453.80706787109375,
        453
      ],
      "min": [
        -453,
        -453.80706787109375,
        -453
      ],
      "type": "VEC3"
    },
    {
      "bufferView": 5,
      "componentType": 5126,
      "count": 4225,
      "max": [
        1,
        1,
        1
      ],
      "min": [
        -1,
        -1,
        -1
      ],
      "type": "VEC3"
    },
    {
      "bufferView": 6,
      "componentType": 5126,
      "count": 4225,
      "max": [
        1.0078125,
        1
      ],
      "min": [
        -0.0078125,
        0
      ],
      "type": "VEC2"
    },
    {
      "bufferView": 7,
      "componentType": 5123,
      "count": 24192,
      "max": [
        4224
      ],
      "min": [
        0
      ],
      "type": "SCALAR"
    },
    {
      "bufferView": 8,
      "componentType": 5126,
      "count": 16900,
      "max": [
        2967.413818359375,
        1386.3583984375,
        866.1986083984375
      ],
      "min": [
        -2967.413818359375,
        -1386.3583984375,
        -0.1764545440673828
      ],
      "type": "VEC3"
    },
    {
      "bufferView": 9,
      "componentType": 5126,
      "count": 16900,
      "max": [
        0.8973257541656494,
        0.9920840859413147,
        1
      ],
      "min": [
        -0.92966628074646,
        -0.9975327253341675,
        0.06836345791816711
      ],
      "type": "VEC3"
    },
    {
      "bufferView": 10,
      "componentType": 5125,
      "count": 25350,
      "max": [
        16899
      ],
      "min": [
        0
      ],
      "type": "SCALAR"
    }
  ],
  "meshes": [
    {
      "primitives": [
        {
          "mode": 4,
          "attributes": {
            "POSITION": 0,
            "NORMAL": 1,
            "TEXCOORD_0": 2
          },
          "extras": {
            "shape": {
              "points": [
                -7769.869186745419,
                19048.184628767678,
                -7769.869186745419,
                19048.184628767678,
                -7769.869186745419,
                19048.184628767678,
                0,
                7769.869186745419,
                19048.184628767678,
                7769.869186745419,
                19048.184628767678,
                7769.869186745419,
                19048.184628767678,
                0,
                7769.869186745419,
                -19048.184628767678,
                7769.869186745419,
                -19048.184628767678,
                7769.869186745419,
                -19048.184628767678,
                0,
                -7769.869186745419,
                -19048.184628767678,
                -7769.869186745419,
                -19048.184628767678,
                -7769.869186745419,
                -19048.184628767678,
                0
              ],
              "shapeHoles": [],
              "isClosed": true,
              "roundness": 0
            },
            "parameters": {
              "width": 15539.738373490838,
              "depth": 0,
              "cornerRadius": [
                0,
                0,
                0,
                0
              ],
              "cornerType": 1,
              "extrudeBevelSize": 0,
              "extrudeBevelSegments": 1,
              "height": 38096.369257535356,
              "type": "RectangleGeometry",
              "subdivisions": 12,
              "shape": {
                "isClosed": true,
                "points": [
                  {
                    "id": "987549ca-5db0-4f43-ac0d-917ff8f3c9c0",
                    "fi": 0,
                    "data": {
                      "position": [
                        -1334.5,
                        5836.074277829718
                      ],
                      "controlNext": {
                        "position": [
                          -1334.5,
                          5836.074277829718
                        ]
                      },
                      "controlPrevious": {
                        "position": [
                          -1334.5,
                          5836.074277829718
                        ]
                      },
                      "areControlsDirectionsMirrored": true,
                      "roundness": 0
                    }
                  },
                  {
                    "id": "37ec14f6-06a5-48df-82ff-4fc84df0a630",
                    "fi": 1,
                    "data": {
                      "position": [
                        1334.5,
                        5836.074277829718
                      ],
                      "controlNext": {
                        "position": [
                          1334.5,
                          5836.074277829718
                        ]
                      },
                      "controlPrevious": {
                        "position": [
                          1334.5,
                          5836.074277829718
                        ]
                      },
                      "areControlsDirectionsMirrored": true,
                      "roundness": 0
                    }
                  },
                  {
                    "id": "cdaf810d-6b70-4491-ab4c-88ca03b6745a",
                    "fi": 2,
                    "data": {
                      "position": [
                        1334.5,
                        -5836.074277829718
                      ],
                      "controlNext": {
                        "position": [
                          1334.5,
                          -5836.074277829718
                        ]
                      },
                      "controlPrevious": {
                        "position": [
                          1334.5,
                          -5836.074277829718
                        ]
                      },
                      "areControlsDirectionsMirrored": true,
                      "roundness": 0
                    }
                  },
                  {
                    "id": "aa75fe12-f09c-49ff-bdb3-0e1382f9592d",
                    "fi": 3,
                    "data": {
                      "position": [
                        -1334.5,
                        -5836.074277829718
                      ],
                      "controlNext": {
                        "position": [
                          -1334.5,
                          -5836.074277829718
                        ]
                      },
                      "controlPrevious": {
                        "position": [
                          -1334.5,
                          -5836.074277829718
                        ]
                      },
                      "areControlsDirectionsMirrored": true,
                      "roundness": 0
                    }
                  }
                ],
                "roundness": 0,
                "shapeHoles": []
              }
            },
            "ui": {
              "enabledIndieCorners": false
            },
            "type": "RectangleGeometry"
          },
          "indices": 3
        }
      ]
    },
    {
      "primitives": [
        {
          "mode": 4,
          "attributes": {
            "POSITION": 4,
            "NORMAL": 5,
            "TEXCOORD_0": 6
          },
          "extras": {
            "parameters": {
              "width": 906,
              "widthSegments": 64,
              "heightSegments": 64,
              "phiStart": 0,
              "phiLength": 6.283185307179586,
              "thetaStart": 0,
              "thetaLength": 180,
              "depth": 906,
              "height": 907.6141056715488,
              "type": "SphereGeometry"
            },
            "type": "SphereGeometry"
          },
          "indices": 7
        }
      ]
    },
    {
      "primitives": [
        {
          "mode": 4,
          "attributes": {
            "POSITION": 8,
            "NORMAL": 9
          },
          "extras": {
            "type": "SubdivGeometry",
            "parameters": {
              "width": 5934.82763671875,
              "height": 2772.716796875,
              "depth": 866.3750629425049
            }
          },
          "indices": 10
        }
      ]
    }
  ]
}