<svg width="24" height="24" viewBox="0 0 24 24" fill="none" xmlns="http://www.w3.org/2000/svg">
<path d="M1 21.3077V2.69231C1 2.24348 1.1783 1.81303 1.49567 1.49567C1.81303 1.1783 2.24348 1 2.69231 1H21.3077C21.7565 1 22.187 1.1783 22.5043 1.49567C22.8217 1.81303 23 2.24348 23 2.69231V21.3077C23 21.7565 22.8217 22.187 22.5043 22.5043C22.187 22.8217 21.7565 23 21.3077 23H16.2308V14.9785H17.4323C17.7061 14.9785 17.9687 14.8697 18.1623 14.6761C18.3559 14.4825 18.4646 14.2199 18.4646 13.9462V12.6431C18.4642 12.3694 18.3553 12.1071 18.1618 11.9136C17.9683 11.7201 17.706 11.6112 17.4323 11.6108H16.2985V10.02C16.2985 8.59846 16.9415 8.59846 17.5846 8.59846H18.4138C18.55 8.60407 18.6858 8.5797 18.8116 8.52706C18.9373 8.47442 19.05 8.39481 19.1415 8.29385C19.2399 8.20022 19.3177 8.08721 19.3702 7.96195C19.4226 7.83669 19.4485 7.70192 19.4462 7.56615V6.31385C19.4511 6.17593 19.4287 6.0384 19.3803 5.90917C19.3319 5.77994 19.2584 5.66157 19.164 5.56089C19.0696 5.46021 18.9562 5.37921 18.8304 5.32255C18.7045 5.26589 18.5687 5.2347 18.4308 5.23077H16.4846C15.9168 5.20942 15.351 5.3116 14.8265 5.53023C14.302 5.74887 13.8312 6.07877 13.4466 6.49713C13.0621 6.91549 12.7729 7.41234 12.5991 7.95337C12.4253 8.4944 12.371 9.06671 12.44 9.63077V11.6108H11.3569C11.2199 11.6085 11.0839 11.6336 10.9567 11.6844C10.8295 11.7353 10.7137 11.811 10.616 11.9071C10.5183 12.0032 10.4408 12.1177 10.3879 12.2441C10.3349 12.3704 10.3077 12.5061 10.3077 12.6431V13.9462C10.3077 14.0832 10.3349 14.2188 10.3879 14.3451C10.4408 14.4715 10.5183 14.5861 10.616 14.6822C10.7137 14.7782 10.8295 14.8539 10.9567 14.9048C11.0839 14.9557 11.2199 14.9807 11.3569 14.9785H12.44V23H2.69231C2.24348 23 1.81303 22.8217 1.49567 22.5043C1.1783 22.187 1 21.7565 1 21.3077Z" stroke="white" stroke-width="2" stroke-linecap="round" stroke-linejoin="round"/>
</svg>
