<svg width="99" height="99" viewBox="0 0 99 99" fill="none" xmlns="http://www.w3.org/2000/svg">
<g filter="url(#filter0_d_247_111)">
<path d="M52.1667 20C55.4479 20.0088 57.1133 20.0263 58.5512 20.0671L59.1171 20.0875C59.7704 20.1108 60.415 20.14 61.1937 20.175C64.2971 20.3208 66.4146 20.8108 68.2725 21.5313C70.1975 22.2721 71.8192 23.2754 73.4408 24.8942C74.9245 26.3517 76.0722 28.1155 76.8037 30.0625C77.5242 31.9204 78.0142 34.0379 78.16 37.1442C78.195 37.92 78.2242 38.5646 78.2475 39.2208L78.265 39.7867C78.3087 41.2217 78.3262 42.8871 78.3321 46.1683L78.335 48.3442V52.165C78.3421 54.2924 78.3197 56.4199 78.2679 58.5467L78.2504 59.1125C78.2271 59.7687 78.1979 60.4133 78.1629 61.1892C78.0171 64.2954 77.5212 66.41 76.8037 68.2708C76.0722 70.2178 74.9245 71.9816 73.4408 73.4392C71.9833 74.9229 70.2194 76.0705 68.2725 76.8021C66.4146 77.5225 64.2971 78.0125 61.1937 78.1583L59.1171 78.2458L58.5512 78.2633C57.1133 78.3042 55.4479 78.3246 52.1667 78.3304L49.9908 78.3333H46.1729C44.0445 78.3408 41.9161 78.3185 39.7883 78.2663L39.2225 78.2488C38.5301 78.2225 37.8379 78.1924 37.1458 78.1583C34.0425 78.0125 31.925 77.5225 30.0642 76.8021C28.1182 76.0702 26.3555 74.9225 24.8987 73.4392C23.414 71.9819 22.2653 70.2181 21.5329 68.2708C20.8125 66.4129 20.3225 64.2954 20.1767 61.1892L20.0892 59.1125L20.0746 58.5467C20.0208 56.4199 19.9965 54.2925 20.0017 52.165V46.1683C19.9936 44.0409 20.015 41.9135 20.0658 39.7867L20.0862 39.2208C20.1096 38.5646 20.1387 37.92 20.1737 37.1442C20.3196 34.0379 20.8096 31.9233 21.53 30.0625C22.2641 28.1147 23.4148 26.3509 24.9017 24.8942C26.3575 23.4112 28.1193 22.2635 30.0642 21.5313C31.925 20.8108 34.0396 20.3208 37.1458 20.175C37.9217 20.14 38.5692 20.1108 39.2225 20.0875L39.7883 20.07C41.9151 20.0182 44.0426 19.9958 46.17 20.0029L52.1667 20ZM49.1683 34.5833C45.3006 34.5833 41.5913 36.1198 38.8564 38.8547C36.1214 41.5896 34.585 45.2989 34.585 49.1667C34.585 53.0344 36.1214 56.7437 38.8564 59.4786C41.5913 62.2135 45.3006 63.75 49.1683 63.75C53.0361 63.75 56.7454 62.2135 59.4803 59.4786C62.2152 56.7437 63.7517 53.0344 63.7517 49.1667C63.7517 45.2989 62.2152 41.5896 59.4803 38.8547C56.7454 36.1198 53.0361 34.5833 49.1683 34.5833ZM49.1683 40.4167C50.3174 40.4165 51.4552 40.6426 52.5169 41.0822C53.5786 41.5217 54.5433 42.1661 55.3559 42.9785C56.1686 43.7908 56.8133 44.7553 57.2532 45.8168C57.6931 46.8784 57.9196 48.0161 57.9198 49.1652C57.92 50.3143 57.6938 51.4521 57.2543 52.5138C56.8147 53.5755 56.1704 54.5402 55.358 55.3528C54.5456 56.1655 53.5811 56.8102 52.5196 57.2501C51.4581 57.69 50.3203 57.9165 49.1712 57.9167C46.8506 57.9167 44.625 56.9948 42.9841 55.3539C41.3431 53.7129 40.4212 51.4873 40.4212 49.1667C40.4212 46.846 41.3431 44.6204 42.9841 42.9795C44.625 41.3385 46.8506 40.4167 49.1712 40.4167M64.4837 30.2083C63.5168 30.2083 62.5895 30.5924 61.9058 31.2762C61.222 31.9599 60.8379 32.8872 60.8379 33.8542C60.8379 34.8211 61.222 35.7484 61.9058 36.4322C62.5895 37.1159 63.5168 37.5 64.4837 37.5C65.4507 37.5 66.378 37.1159 67.0617 36.4322C67.7455 35.7484 68.1296 34.8211 68.1296 33.8542C68.1296 32.8872 67.7455 31.9599 67.0617 31.2762C66.378 30.5924 65.4507 30.2083 64.4837 30.2083Z" fill="white"/>
</g>
<defs>
<filter id="filter0_d_247_111" x="0" y="0" width="98.3363" height="98.335" filterUnits="userSpaceOnUse" color-interpolation-filters="sRGB">
<feFlood flood-opacity="0" result="BackgroundImageFix"/>
<feColorMatrix in="SourceAlpha" type="matrix" values="0 0 0 0 0 0 0 0 0 0 0 0 0 0 0 0 0 0 127 0" result="hardAlpha"/>
<feOffset/>
<feGaussianBlur stdDeviation="10"/>
<feComposite in2="hardAlpha" operator="out"/>
<feColorMatrix type="matrix" values="0 0 0 0 0.775163 0 0 0 0 0.919701 0 0 0 0 1 0 0 0 1 0"/>
<feBlend mode="normal" in2="BackgroundImageFix" result="effect1_dropShadow_247_111"/>
<feBlend mode="normal" in="SourceGraphic" in2="effect1_dropShadow_247_111" result="shape"/>
</filter>
</defs>
</svg>
