<svg width="24" height="23" viewBox="0 0 24 23" fill="none" xmlns="http://www.w3.org/2000/svg">
<path d="M16.7203 5.45533C16.7203 5.13786 16.8464 4.8334 17.0709 4.60891C17.2954 4.38443 17.5998 4.25832 17.9173 4.25832C18.2348 4.25832 18.5392 4.38443 18.7637 4.60891C18.9882 4.8334 19.1143 5.13786 19.1143 5.45533C19.1143 5.7728 18.9882 6.07726 18.7637 6.30174C18.5392 6.52623 18.2348 6.65234 17.9173 6.65234C17.5998 6.65234 17.2954 6.52623 17.0709 6.30174C16.8464 6.07726 16.7203 5.7728 16.7203 5.45533Z" fill="white"/>
<path fill-rule="evenodd" clip-rule="evenodd" d="M11.9323 5.75458C10.4243 5.75458 8.97809 6.35362 7.91179 7.41991C6.8455 8.48621 6.24646 9.93241 6.24646 11.4404C6.24646 12.9484 6.8455 14.3946 7.91179 15.4609C8.97809 16.5272 10.4243 17.1262 11.9323 17.1262C13.4402 17.1262 14.8864 16.5272 15.9527 15.4609C17.019 14.3946 17.6181 12.9484 17.6181 11.4404C17.6181 9.93241 17.019 8.48621 15.9527 7.41991C14.8864 6.35362 13.4402 5.75458 11.9323 5.75458ZM8.04198 11.4404C8.04198 10.4086 8.45185 9.41911 9.18142 8.68953C9.91099 7.95996 10.9005 7.5501 11.9323 7.5501C12.964 7.5501 13.9535 7.95996 14.6831 8.68953C15.4127 9.41911 15.8226 10.4086 15.8226 11.4404C15.8226 12.4722 15.4127 13.4617 14.6831 14.1912C13.9535 14.9208 12.964 15.3307 11.9323 15.3307C10.9005 15.3307 9.91099 14.9208 9.18142 14.1912C8.45185 13.4617 8.04198 12.4722 8.04198 11.4404Z" fill="white"/>
<path fill-rule="evenodd" clip-rule="evenodd" d="M18.2261 0.467379C14.043 0.00365125 9.82148 0.00365125 5.63837 0.467379C3.22998 0.736706 1.28483 2.63397 1.00234 5.05433C0.506057 9.29724 0.506057 13.5835 1.00234 17.8264C1.28483 20.2468 3.22878 22.1441 5.63837 22.4134C9.8215 22.8766 14.043 22.8766 18.2261 22.4134C20.6345 22.1441 22.5797 20.2468 22.8622 17.8264C23.3585 13.5835 23.3585 9.29723 22.8622 5.05433C22.5797 2.63397 20.6357 0.736706 18.2261 0.467379ZM5.83707 2.25093C9.88812 1.80189 13.9764 1.80189 18.0274 2.25093C19.6195 2.43048 20.8943 3.68614 21.0798 5.2638C21.5598 9.36754 21.5598 13.5132 21.0798 17.617C20.9838 18.3891 20.6304 19.1063 20.0765 19.6528C19.5227 20.1993 18.8008 20.5431 18.0274 20.6286C13.9764 21.0777 9.88812 21.0777 5.83707 20.6286C5.06373 20.5431 4.34182 20.1993 3.78797 19.6528C3.23412 19.1063 2.88066 18.3891 2.78469 17.617C2.30474 13.5132 2.30474 9.36754 2.78469 5.2638C2.88066 4.49168 3.23412 3.77446 3.78797 3.22799C4.34182 2.68152 5.06373 2.33652 5.83707 2.25093Z" fill="white"/>
</svg>
