<svg width="22" height="21" viewBox="0 0 22 21" fill="none" xmlns="http://www.w3.org/2000/svg">
<path d="M21.4286 20.9956H16.961C16.645 20.9956 16.3896 20.7412 16.3896 20.4265V13.2598C16.3896 10.8019 15.1169 10.8019 14.697 10.8019C13.5671 10.8019 13.0866 11.6902 12.9307 12.074C12.8571 12.2465 12.8225 12.5397 12.8225 12.9494V20.4308C12.8225 20.7456 12.5671 21 12.2511 21H7.77925C7.62773 21 7.48054 20.9396 7.37232 20.8319C7.2641 20.7241 7.2035 20.5774 7.20781 20.4265C7.20781 20.3058 7.26842 8.28797 7.20781 7.05902C7.19916 6.90378 7.25543 6.75286 7.36367 6.64074C7.4719 6.52863 7.61908 6.46394 7.77922 6.46394H12.2511C12.5671 6.46394 12.8225 6.71833 12.8225 7.03311V7.36946C13.5758 6.70109 14.6623 6.14913 16.2814 6.14913C19.8615 6.14913 22 8.61563 22 12.7466V20.4265C22 20.7412 21.7446 20.9956 21.4286 20.9956ZM17.5325 19.8573L20.8615 19.8572V12.7466C20.8615 9.27532 19.1948 7.28747 16.2857 7.28747C14.342 7.28747 13.3983 8.25338 12.8052 9.13736C12.736 9.37021 12.5152 9.54272 12.2554 9.54272H12.2251C12.0173 9.54272 11.8269 9.43058 11.7273 9.2495C11.6494 9.10718 11.6321 8.94331 11.684 8.79239V7.59797H8.36367C8.39397 9.97394 8.36367 17.6624 8.35502 19.853H11.6797V12.945C11.6797 12.3715 11.7403 11.9575 11.8702 11.6427C12.3723 10.4052 13.4286 9.65918 14.6927 9.65918C16.4935 9.65918 17.5281 10.9701 17.5281 13.2555V19.8573H17.5325L17.5325 19.8573ZM5.30739 20.9956H0.835521C0.519503 20.9956 0.264111 20.7412 0.264111 20.4264V7.03307C0.264111 6.71829 0.519503 6.46387 0.835521 6.46387H5.30739C5.62341 6.46387 5.8788 6.71829 5.8788 7.03305V20.4264C5.8788 20.7412 5.62341 20.9956 5.30739 20.9956V20.9956ZM1.40697 19.8572H4.73596V7.60223H1.407L1.40697 19.8572ZM3.07361 5.77392L3.04329 5.7739C1.28138 5.7739 0 4.55789 0 2.8848C0 1.21603 1.30303 0 3.10389 0C4.87445 0 6.13855 1.1815 6.17319 2.87186C6.17319 4.55789 4.87016 5.77392 3.07361 5.77392ZM3.10389 1.14272C1.93073 1.14272 1.14286 1.8456 1.14286 2.88914C1.14286 3.9154 1.9221 4.63552 3.04331 4.63552H3.07359C4.24244 4.63552 5.03031 3.93264 5.03031 2.88912C5.00866 1.83265 4.25109 1.14272 3.10389 1.14272Z" fill="white"/>
</svg>
