<svg width="99" height="99" viewBox="0 0 99 99" fill="none" xmlns="http://www.w3.org/2000/svg">
<g filter="url(#filter0_d_247_115)">
<path d="M31.5292 20.167C25.2816 20.167 20.1683 25.2802 20.1683 31.5279V66.7826C20.1683 73.0302 25.2815 78.1416 31.5292 78.1416H66.784C73.0316 78.1416 78.143 73.0303 78.143 66.7826V31.5279C78.143 25.2803 73.0316 20.167 66.784 20.167H31.5292ZM34.3866 29.734C37.3822 29.734 39.2274 31.7005 39.2843 34.2855C39.2843 36.8135 37.3821 38.8353 34.3287 38.8353H34.2725C31.3339 38.8353 29.4346 36.8136 29.4346 34.2855C29.4346 31.7006 31.3914 29.734 34.3866 29.734H34.3866ZM60.2013 41.816C65.9623 41.816 70.2811 45.5814 70.2811 53.6732V68.7793H61.5258V54.686C61.5258 51.1446 60.2587 48.7284 57.0902 48.7284C54.6714 48.7284 53.2296 50.3569 52.5966 51.9301C52.3654 52.4929 52.3085 53.279 52.3085 54.0664V68.7793H43.5532C43.5532 68.7793 43.6681 44.9057 43.5532 42.4338H52.3103V46.1646C53.4738 44.3695 55.5549 41.8159 60.2013 41.8159V41.816ZM29.951 42.4357H38.7063V68.7794H29.951V42.4357Z" fill="white"/>
</g>
<defs>
<filter id="filter0_d_247_115" x="0.168335" y="0.166992" width="97.9747" height="97.9746" filterUnits="userSpaceOnUse" color-interpolation-filters="sRGB">
<feFlood flood-opacity="0" result="BackgroundImageFix"/>
<feColorMatrix in="SourceAlpha" type="matrix" values="0 0 0 0 0 0 0 0 0 0 0 0 0 0 0 0 0 0 127 0" result="hardAlpha"/>
<feOffset/>
<feGaussianBlur stdDeviation="10"/>
<feComposite in2="hardAlpha" operator="out"/>
<feColorMatrix type="matrix" values="0 0 0 0 0.775163 0 0 0 0 0.919701 0 0 0 0 1 0 0 0 1 0"/>
<feBlend mode="normal" in2="BackgroundImageFix" result="effect1_dropShadow_247_115"/>
<feBlend mode="normal" in="SourceGraphic" in2="effect1_dropShadow_247_115" result="shape"/>
</filter>
</defs>
</svg>
