<svg width="99" height="99" viewBox="0 0 99 99" fill="none" xmlns="http://www.w3.org/2000/svg">
<g filter="url(#filter0_d_247_121)">
<path d="M49.8062 31.4795C46.7353 31.4786 43.7203 32.3004 41.0747 33.8594C38.4291 35.4185 36.2494 37.6579 34.7625 40.3447C33.2755 43.0315 32.5355 46.0676 32.6194 49.1373C32.7033 52.207 33.608 55.1981 35.2396 57.7997L35.6485 58.4493L33.9114 64.7887L40.416 63.0835L41.0424 63.4547C43.6904 65.0229 46.7113 65.8502 49.7888 65.8501H49.7975C54.3557 65.8508 58.7275 64.0408 61.9512 60.8182C65.1749 57.5956 66.9863 53.2244 66.9871 48.6662C66.9879 44.108 65.1779 39.7362 61.9553 36.5125C58.7327 33.2888 54.3615 31.4773 49.8033 31.4766L49.8062 31.4795ZM59.9097 56.0423C59.5296 56.6701 59.0237 57.2124 58.4238 57.6351C57.8239 58.0578 57.143 58.3518 56.4239 58.4986C55.3383 58.6848 54.2242 58.6153 53.1701 58.2956C52.1705 57.9841 51.188 57.6201 50.2267 57.2052C46.6589 55.4147 43.6179 52.7275 41.402 49.4072C40.1932 47.8701 39.4595 46.0135 39.2908 44.0654C39.2769 43.2613 39.4306 42.4631 39.7422 41.7216C40.0537 40.9802 40.5163 40.3117 41.1004 39.7589C41.273 39.562 41.4845 39.4029 41.7216 39.2916C41.9586 39.1803 42.2161 39.1192 42.4779 39.1122C42.8201 39.1122 43.1652 39.1122 43.4668 39.1296C43.7858 39.1441 44.2092 39.0078 44.6268 40.017C45.0618 41.0494 46.0942 43.5927 46.2218 43.8508C46.3037 43.9861 46.3506 44.1397 46.3582 44.2977C46.3658 44.4557 46.3338 44.613 46.2653 44.7556C46.1352 45.0658 45.9614 45.3559 45.7491 45.6169C45.4881 45.9185 45.2068 46.2897 44.9748 46.5217C44.7138 46.7798 44.447 47.0582 44.7457 47.5744C45.5215 48.9027 46.49 50.1087 47.6196 51.1529C48.8452 52.2426 50.2515 53.1101 51.7753 53.7165C52.2915 53.9775 52.5931 53.9311 52.8946 53.586C53.1962 53.2409 54.1851 52.078 54.5302 51.5618C54.8753 51.0456 55.2175 51.1326 55.6902 51.3037C56.1629 51.4748 58.7062 52.7247 59.2224 52.9857C59.7386 53.2467 60.0837 53.3714 60.2113 53.586C60.3527 54.4167 60.2479 55.2706 59.9097 56.0423Z" fill="white"/>
<path d="M78.139 33.3532C78.1148 32.109 78.0151 30.8675 77.8403 29.6354C77.632 28.5395 77.2779 27.4764 76.7876 26.4745C75.7142 24.3554 73.9934 22.6336 71.875 21.559C70.8795 21.071 69.8233 20.7179 68.7343 20.5092C67.4929 20.3308 66.2416 20.2291 64.9876 20.2047C64.4569 20.1844 63.7696 20.1757 63.4506 20.1757L34.8915 20.167C34.5725 20.167 33.8853 20.1757 33.3546 20.196C32.1104 20.22 30.8688 20.3197 29.6368 20.4947C28.5409 20.703 27.4778 21.0571 26.4758 21.5474C24.3569 22.621 22.6352 24.3417 21.5603 26.46C21.0724 27.4556 20.7194 28.5118 20.5105 29.6006C20.3313 30.8421 20.2287 32.0934 20.2031 33.3474C20.1857 33.8781 20.1741 34.5654 20.1741 34.8844L20.1683 63.4434C20.1683 63.7624 20.177 64.4497 20.1973 64.9804C20.2213 66.2246 20.3211 67.4662 20.496 68.6982C20.7044 69.7941 21.0584 70.8572 21.5487 71.8592C22.6223 73.9781 24.343 75.6998 26.4613 76.7747C27.4569 77.2625 28.5131 77.6155 29.602 77.8244C30.8435 78.0029 32.0948 78.1046 33.3488 78.1289C33.8795 78.1492 34.5667 78.1579 34.8857 78.1579L63.4448 78.1637C63.7638 78.1637 64.4511 78.155 64.9818 78.1347C66.2259 78.1107 67.4675 78.0109 68.6995 77.836C69.7954 77.6276 70.8585 77.2735 71.8605 76.7834C73.9805 75.7103 75.7033 73.9895 76.7789 71.8708C77.2669 70.8752 77.6199 69.819 77.8287 68.7301C78.008 67.4887 78.1106 66.2374 78.1361 64.9833C78.1535 64.4526 78.1651 63.7653 78.1651 63.4463L78.168 34.8902C78.168 34.5712 78.1593 33.8839 78.139 33.3532ZM49.7975 69.342H49.7888C46.3368 69.3413 42.94 68.4759 39.9085 66.8248L28.9466 69.6987L31.8814 58.9891C29.6091 55.046 28.7012 50.4634 29.2983 45.9519C29.8955 41.4403 31.9645 37.2517 35.1844 34.0357C38.4043 30.8196 42.5953 28.7556 47.1075 28.1638C51.6198 27.572 56.2013 28.4854 60.1417 30.7623C64.082 33.0393 67.1611 36.5526 68.9015 40.7576C70.6419 44.9626 70.9465 49.6243 69.7679 54.02C68.5893 58.4156 65.9934 62.2997 62.3828 65.0699C58.7721 67.8401 54.3484 69.3418 49.7975 69.342Z" fill="white"/>
</g>
<defs>
<filter id="filter0_d_247_121" x="0.168335" y="0.166992" width="97.9996" height="97.9971" filterUnits="userSpaceOnUse" color-interpolation-filters="sRGB">
<feFlood flood-opacity="0" result="BackgroundImageFix"/>
<feColorMatrix in="SourceAlpha" type="matrix" values="0 0 0 0 0 0 0 0 0 0 0 0 0 0 0 0 0 0 127 0" result="hardAlpha"/>
<feOffset/>
<feGaussianBlur stdDeviation="10"/>
<feComposite in2="hardAlpha" operator="out"/>
<feColorMatrix type="matrix" values="0 0 0 0 0.775163 0 0 0 0 0.919701 0 0 0 0 1 0 0 0 1 0"/>
<feBlend mode="normal" in2="BackgroundImageFix" result="effect1_dropShadow_247_121"/>
<feBlend mode="normal" in="SourceGraphic" in2="effect1_dropShadow_247_121" result="shape"/>
</filter>
</defs>
</svg>
