<svg width="20" height="21" viewBox="0 0 20 21" fill="none" xmlns="http://www.w3.org/2000/svg">
<path d="M10.0402 5.65897e-05C4.55276 5.65897e-05 0.0804022 4.67254 0.0804022 10.4055C0.0804022 12.243 0.542714 14.028 1.40704 15.603L0 21L5.27638 19.551C6.73367 20.3805 8.37186 20.8215 10.0402 20.8215C15.5276 20.8215 20 16.149 20 10.416C20 7.63354 18.9648 5.01904 17.0854 3.05555C16.1639 2.08336 15.0664 1.31252 13.8568 0.787935C12.6472 0.263352 11.3498 -0.00447631 10.0402 5.65897e-05ZM10.0503 1.75355C12.2613 1.75355 14.3317 2.65655 15.8995 4.29454C16.6687 5.09834 17.2786 6.05278 17.6943 7.1032C18.1099 8.15363 18.3231 9.2794 18.3216 10.416C18.3216 15.183 14.603 19.0575 10.0402 19.0575C8.55276 19.0575 7.09548 18.648 5.82915 17.85L5.52764 17.6715L2.39196 18.5325L3.22613 15.3405L3.02513 15.0045C2.19552 13.6273 1.75645 12.0327 1.75879 10.4055C1.76884 5.63854 5.47739 1.75355 10.0503 1.75355ZM6.51256 5.59654C6.35176 5.59654 6.0804 5.65954 5.84925 5.92204C5.62814 6.18454 4.97487 6.82504 4.97487 8.09553C4.97487 9.37653 5.86935 10.605 5.9799 10.7835C6.1206 10.962 7.74874 13.587 10.2513 14.7C10.8442 14.9835 11.3065 15.141 11.6683 15.2565C12.2613 15.456 12.804 15.4245 13.2362 15.3615C13.7186 15.288 14.7035 14.7315 14.9146 14.1225C15.1256 13.5135 15.1256 12.999 15.0653 12.8835C14.995 12.7785 14.8342 12.7155 14.5829 12.6C14.3317 12.453 13.1055 11.823 12.8844 11.739C12.6533 11.655 12.5126 11.613 12.3216 11.865C12.1608 12.1275 11.6784 12.7155 11.5377 12.8835C11.3869 13.062 11.2462 13.083 11.005 12.957C10.7437 12.8205 9.9397 12.5475 8.99497 11.6655C8.25126 10.9725 7.75879 10.122 7.60804 9.85953C7.48744 9.60753 7.59799 9.45003 7.71859 9.33453C7.82914 9.21903 7.98995 9.03003 8.09045 8.87253C8.2211 8.72553 8.26131 8.61003 8.34171 8.44203C8.42211 8.26353 8.38191 8.11653 8.32161 7.99053C8.2613 7.87503 7.75879 6.57304 7.54774 6.05854C7.34673 5.55454 7.14573 5.61754 6.98492 5.60704C6.84422 5.60704 6.68342 5.59654 6.51256 5.59654Z" fill="white"/>
</svg>
